<mxfile host="app.diagrams.net" modified="2023-02-14T10:15:24.413Z" agent="5.0 (Windows NT 10.0; Win64; x64) AppleWebKit/537.36 (KHTML, like Gecko) Chrome/109.0.0.0 Safari/537.36" etag="cOWFTLRAniG4odIRZ3s7" version="20.8.16" type="github">
  <diagram name="第 1 页" id="prYPWEz3ubBdFDEV3Z4t">
    <mxGraphModel dx="819" dy="437" grid="1" gridSize="10" guides="1" tooltips="1" connect="1" arrows="1" fold="1" page="1" pageScale="1" pageWidth="827" pageHeight="1169" math="0" shadow="0">
      <root>
        <mxCell id="0" />
        <mxCell id="1" parent="0" />
        <mxCell id="yCSQ9UV-EW6JQxp8kpYr-37" value="" style="endArrow=none;html=1;rounded=0;" edge="1" parent="1">
          <mxGeometry width="50" height="50" relative="1" as="geometry">
            <mxPoint x="40" y="290" as="sourcePoint" />
            <mxPoint x="40" y="80" as="targetPoint" />
          </mxGeometry>
        </mxCell>
        <mxCell id="yCSQ9UV-EW6JQxp8kpYr-38" value="" style="endArrow=none;html=1;rounded=0;" edge="1" parent="1">
          <mxGeometry width="50" height="50" relative="1" as="geometry">
            <mxPoint x="480" y="290" as="sourcePoint" />
            <mxPoint x="480" y="80" as="targetPoint" />
          </mxGeometry>
        </mxCell>
        <mxCell id="yCSQ9UV-EW6JQxp8kpYr-2" value="" style="ellipse;whiteSpace=wrap;html=1;fillColor=#00CC00;strokeColor=#000000;" vertex="1" parent="1">
          <mxGeometry x="74.6071599045346" y="120" width="6.835322195704057" height="6.83491062039958" as="geometry" />
        </mxCell>
        <mxCell id="yCSQ9UV-EW6JQxp8kpYr-3" value="" style="ellipse;whiteSpace=wrap;html=1;fillColor=#00CC00;strokeColor=#000000;" vertex="1" parent="1">
          <mxGeometry x="81.44248210023866" y="130.93585699263932" width="6.835322195704057" height="6.971608832807571" as="geometry" />
        </mxCell>
        <mxCell id="yCSQ9UV-EW6JQxp8kpYr-4" value="" style="endArrow=none;html=1;rounded=0;exitX=0.3;exitY=0.059;exitDx=0;exitDy=0;entryX=1;entryY=1;entryDx=0;entryDy=0;exitPerimeter=0;strokeWidth=1;strokeColor=#000000;" edge="1" parent="1" source="yCSQ9UV-EW6JQxp8kpYr-3" target="yCSQ9UV-EW6JQxp8kpYr-2">
          <mxGeometry width="50" height="50" relative="1" as="geometry">
            <mxPoint x="100.58138424821003" y="154.1745531019979" as="sourcePoint" />
            <mxPoint x="107.41670644391408" y="147.33964248159833" as="targetPoint" />
          </mxGeometry>
        </mxCell>
        <mxCell id="yCSQ9UV-EW6JQxp8kpYr-5" value="" style="ellipse;whiteSpace=wrap;html=1;fillColor=#f8cecc;strokeColor=#000000;" vertex="1" parent="1">
          <mxGeometry x="82.80954653937948" y="140.50473186119874" width="6.835322195704057" height="6.971608832807571" as="geometry" />
        </mxCell>
        <mxCell id="yCSQ9UV-EW6JQxp8kpYr-6" value="" style="ellipse;whiteSpace=wrap;html=1;fillColor=#3333FF;strokeColor=#000000;" vertex="1" parent="1">
          <mxGeometry x="100.44467780429594" y="143.23869610935859" width="6.835322195704057" height="6.971608832807571" as="geometry" />
        </mxCell>
        <mxCell id="yCSQ9UV-EW6JQxp8kpYr-7" value="" style="ellipse;whiteSpace=wrap;html=1;fillColor=#FF6666;strokeColor=#000000;" vertex="1" parent="1">
          <mxGeometry x="63.67064439140812" y="143.23869610935859" width="6.835322195704057" height="6.971608832807571" as="geometry" />
        </mxCell>
        <mxCell id="yCSQ9UV-EW6JQxp8kpYr-8" value="" style="endArrow=none;html=1;rounded=0;entryX=0.7;entryY=0.974;entryDx=0;entryDy=0;strokeWidth=1;entryPerimeter=0;exitX=0.5;exitY=0;exitDx=0;exitDy=0;strokeColor=#000000;" edge="1" parent="1" source="yCSQ9UV-EW6JQxp8kpYr-5" target="yCSQ9UV-EW6JQxp8kpYr-3">
          <mxGeometry width="50" height="50" relative="1" as="geometry">
            <mxPoint x="100.85479713603819" y="132.30283911671924" as="sourcePoint" />
            <mxPoint x="97.84693677961607" y="126.83459204927053" as="targetPoint" />
          </mxGeometry>
        </mxCell>
        <mxCell id="yCSQ9UV-EW6JQxp8kpYr-9" value="" style="edgeStyle=none;orthogonalLoop=1;jettySize=auto;html=1;rounded=0;labelBackgroundColor=default;strokeColor=#000000;strokeWidth=1;fontFamily=Helvetica;fontSize=11;fontColor=default;endArrow=none;shape=connector;exitX=1;exitY=0.5;exitDx=0;exitDy=0;entryX=0;entryY=0.5;entryDx=0;entryDy=0;" edge="1" parent="1" source="yCSQ9UV-EW6JQxp8kpYr-7" target="yCSQ9UV-EW6JQxp8kpYr-5">
          <mxGeometry width="100" relative="1" as="geometry">
            <mxPoint x="73.2400954653938" y="148.03406940063093" as="sourcePoint" />
            <mxPoint x="83.76649164677804" y="146.38275499474238" as="targetPoint" />
            <Array as="points" />
          </mxGeometry>
        </mxCell>
        <mxCell id="yCSQ9UV-EW6JQxp8kpYr-10" value="" style="edgeStyle=none;orthogonalLoop=1;jettySize=auto;html=1;rounded=0;labelBackgroundColor=default;strokeColor=#000000;strokeWidth=1;fontFamily=Helvetica;fontSize=11;fontColor=default;endArrow=none;shape=connector;exitX=1;exitY=0.5;exitDx=0;exitDy=0;entryX=0.02;entryY=0.386;entryDx=0;entryDy=0;entryPerimeter=0;" edge="1" parent="1" source="yCSQ9UV-EW6JQxp8kpYr-5" target="yCSQ9UV-EW6JQxp8kpYr-6">
          <mxGeometry width="100" relative="1" as="geometry">
            <mxPoint x="93.74606205250596" y="161.00946372239747" as="sourcePoint" />
            <mxPoint x="107.41670644391408" y="161.00946372239747" as="targetPoint" />
            <Array as="points" />
          </mxGeometry>
        </mxCell>
        <mxCell id="yCSQ9UV-EW6JQxp8kpYr-11" value="" style="ellipse;whiteSpace=wrap;html=1;fillColor=#f8cecc;strokeColor=#000000;" vertex="1" parent="1">
          <mxGeometry x="82.80954653937948" y="158.27549947423765" width="6.835322195704057" height="6.971608832807571" as="geometry" />
        </mxCell>
        <mxCell id="yCSQ9UV-EW6JQxp8kpYr-12" value="" style="edgeStyle=none;orthogonalLoop=1;jettySize=auto;html=1;rounded=0;labelBackgroundColor=default;strokeColor=#000000;strokeWidth=1;fontFamily=Helvetica;fontSize=11;fontColor=default;endArrow=none;shape=connector;exitX=0.5;exitY=0;exitDx=0;exitDy=0;entryX=0.5;entryY=1;entryDx=0;entryDy=0;" edge="1" parent="1" source="yCSQ9UV-EW6JQxp8kpYr-11" target="yCSQ9UV-EW6JQxp8kpYr-5">
          <mxGeometry width="100" relative="1" as="geometry">
            <mxPoint x="93.74606205250596" y="171.94532071503681" as="sourcePoint" />
            <mxPoint x="107.41670644391408" y="171.94532071503681" as="targetPoint" />
            <Array as="points" />
          </mxGeometry>
        </mxCell>
        <mxCell id="yCSQ9UV-EW6JQxp8kpYr-13" value="" style="ellipse;whiteSpace=wrap;html=1;fillColor=#3333FF;strokeColor=#000000;" vertex="1" parent="1">
          <mxGeometry x="100.44467780429594" y="159.64248159831757" width="6.835322195704057" height="6.971608832807571" as="geometry" />
        </mxCell>
        <mxCell id="yCSQ9UV-EW6JQxp8kpYr-14" value="" style="edgeStyle=none;orthogonalLoop=1;jettySize=auto;html=1;rounded=0;labelBackgroundColor=default;strokeColor=#000000;strokeWidth=1;fontFamily=Helvetica;fontSize=11;fontColor=default;endArrow=none;shape=connector;exitX=1;exitY=1;exitDx=0;exitDy=0;" edge="1" parent="1" source="yCSQ9UV-EW6JQxp8kpYr-6" target="yCSQ9UV-EW6JQxp8kpYr-13">
          <mxGeometry width="100" relative="1" as="geometry">
            <mxPoint x="118.35322195704059" y="165.11041009463722" as="sourcePoint" />
            <mxPoint x="132.02386634844868" y="165.11041009463722" as="targetPoint" />
            <Array as="points" />
          </mxGeometry>
        </mxCell>
        <mxCell id="yCSQ9UV-EW6JQxp8kpYr-15" value="" style="ellipse;whiteSpace=wrap;html=1;fillColor=#3333FF;strokeColor=#000000;" vertex="1" parent="1">
          <mxGeometry x="65.03770883054892" y="165.11041009463722" width="6.835322195704057" height="6.971608832807571" as="geometry" />
        </mxCell>
        <mxCell id="yCSQ9UV-EW6JQxp8kpYr-16" value="" style="edgeStyle=none;orthogonalLoop=1;jettySize=auto;html=1;rounded=0;labelBackgroundColor=default;strokeColor=#000000;strokeWidth=1;fontFamily=Helvetica;fontSize=11;fontColor=default;endArrow=none;shape=connector;exitX=1;exitY=0.5;exitDx=0;exitDy=0;" edge="1" parent="1" source="yCSQ9UV-EW6JQxp8kpYr-15" target="yCSQ9UV-EW6JQxp8kpYr-13">
          <mxGeometry width="100" relative="1" as="geometry">
            <mxPoint x="115.61909307875895" y="182.88117770767616" as="sourcePoint" />
            <mxPoint x="129.28973747016707" y="182.88117770767616" as="targetPoint" />
            <Array as="points" />
          </mxGeometry>
        </mxCell>
        <mxCell id="yCSQ9UV-EW6JQxp8kpYr-17" value="" style="ellipse;whiteSpace=wrap;html=1;fillColor=#FF6666;strokeColor=#000000;" vertex="1" parent="1">
          <mxGeometry x="49.99801909307876" y="165.1145531019979" width="6.835322195704057" height="6.971608832807571" as="geometry" />
        </mxCell>
        <mxCell id="yCSQ9UV-EW6JQxp8kpYr-18" value="" style="edgeStyle=none;orthogonalLoop=1;jettySize=auto;html=1;rounded=0;labelBackgroundColor=default;strokeColor=#000000;strokeWidth=1;fontFamily=Helvetica;fontSize=11;fontColor=default;endArrow=none;shape=connector;exitX=0.677;exitY=0.061;exitDx=0;exitDy=0;exitPerimeter=0;" edge="1" parent="1" source="yCSQ9UV-EW6JQxp8kpYr-17">
          <mxGeometry width="100" relative="1" as="geometry">
            <mxPoint x="65.03770883054892" y="154.1745531019979" as="sourcePoint" />
            <mxPoint x="64.62758949880669" y="149.2534174553102" as="targetPoint" />
            <Array as="points" />
          </mxGeometry>
        </mxCell>
        <mxCell id="yCSQ9UV-EW6JQxp8kpYr-19" value="" style="ellipse;whiteSpace=wrap;html=1;fillColor=#f8cecc;strokeColor=#000000;" vertex="1" parent="1">
          <mxGeometry x="82.80954653937948" y="181.51419558359623" width="6.835322195704057" height="6.971608832807571" as="geometry" />
        </mxCell>
        <mxCell id="yCSQ9UV-EW6JQxp8kpYr-20" value="" style="edgeStyle=none;orthogonalLoop=1;jettySize=auto;html=1;rounded=0;labelBackgroundColor=default;strokeColor=#000000;strokeWidth=1;fontFamily=Helvetica;fontSize=11;fontColor=default;endArrow=none;shape=connector;exitX=0.5;exitY=0;exitDx=0;exitDy=0;entryX=0.5;entryY=1;entryDx=0;entryDy=0;" edge="1" parent="1" source="yCSQ9UV-EW6JQxp8kpYr-19" target="yCSQ9UV-EW6JQxp8kpYr-11">
          <mxGeometry width="100" relative="1" as="geometry">
            <mxPoint x="97.8472553699284" y="188.3491062039958" as="sourcePoint" />
            <mxPoint x="111.51789976133651" y="188.3491062039958" as="targetPoint" />
            <Array as="points" />
          </mxGeometry>
        </mxCell>
        <mxCell id="yCSQ9UV-EW6JQxp8kpYr-21" value="" style="ellipse;whiteSpace=wrap;html=1;fillColor=#FFB570;strokeColor=#000000;" vertex="1" parent="1">
          <mxGeometry x="97.02701670644393" y="181.51419558359623" width="6.835322195704057" height="6.971608832807571" as="geometry" />
        </mxCell>
        <mxCell id="yCSQ9UV-EW6JQxp8kpYr-22" value="" style="ellipse;whiteSpace=wrap;html=1;fillColor=#f8cecc;strokeColor=#000000;" vertex="1" parent="1">
          <mxGeometry x="68.59207637231503" y="181.51419558359623" width="6.835322195704057" height="6.971608832807571" as="geometry" />
        </mxCell>
        <mxCell id="yCSQ9UV-EW6JQxp8kpYr-23" value="" style="edgeStyle=none;orthogonalLoop=1;jettySize=auto;html=1;rounded=0;labelBackgroundColor=default;strokeColor=#000000;strokeWidth=1;fontFamily=Helvetica;fontSize=11;fontColor=default;endArrow=none;shape=connector;entryX=0;entryY=0.5;entryDx=0;entryDy=0;exitX=1;exitY=0.5;exitDx=0;exitDy=0;" edge="1" parent="1" source="yCSQ9UV-EW6JQxp8kpYr-22" target="yCSQ9UV-EW6JQxp8kpYr-19">
          <mxGeometry width="100" relative="1" as="geometry">
            <mxPoint x="77.34128878281624" y="184.94121976866455" as="sourcePoint" />
            <mxPoint x="91.01193317422434" y="184.94121976866455" as="targetPoint" />
            <Array as="points" />
          </mxGeometry>
        </mxCell>
        <mxCell id="yCSQ9UV-EW6JQxp8kpYr-24" value="" style="edgeStyle=none;orthogonalLoop=1;jettySize=auto;html=1;rounded=0;labelBackgroundColor=default;strokeColor=#000000;strokeWidth=1;fontFamily=Helvetica;fontSize=11;fontColor=default;endArrow=none;shape=connector;exitX=1;exitY=0.5;exitDx=0;exitDy=0;entryX=0;entryY=0.5;entryDx=0;entryDy=0;" edge="1" parent="1" source="yCSQ9UV-EW6JQxp8kpYr-19" target="yCSQ9UV-EW6JQxp8kpYr-21">
          <mxGeometry width="100" relative="1" as="geometry">
            <mxPoint x="84.1766109785203" y="203.38590956887487" as="sourcePoint" />
            <mxPoint x="97.8472553699284" y="203.38590956887487" as="targetPoint" />
            <Array as="points" />
          </mxGeometry>
        </mxCell>
        <mxCell id="yCSQ9UV-EW6JQxp8kpYr-25" value="" style="ellipse;whiteSpace=wrap;html=1;fillColor=#f8cecc;strokeColor=#000000;" vertex="1" parent="1">
          <mxGeometry x="66.40477326968974" y="218.42271293375396" width="6.835322195704057" height="6.971608832807571" as="geometry" />
        </mxCell>
        <mxCell id="yCSQ9UV-EW6JQxp8kpYr-26" value="" style="ellipse;whiteSpace=wrap;html=1;fillColor=#FFB570;strokeColor=#000000;" vertex="1" parent="1">
          <mxGeometry x="99.21431980906921" y="218.42271293375396" width="6.835322195704057" height="6.971608832807571" as="geometry" />
        </mxCell>
        <mxCell id="yCSQ9UV-EW6JQxp8kpYr-27" value="" style="edgeStyle=none;orthogonalLoop=1;jettySize=auto;html=1;rounded=0;labelBackgroundColor=default;strokeColor=#000000;strokeWidth=1;fontFamily=Helvetica;fontSize=11;fontColor=default;endArrow=none;shape=connector;exitX=0.5;exitY=0;exitDx=0;exitDy=0;" edge="1" parent="1" source="yCSQ9UV-EW6JQxp8kpYr-25" target="yCSQ9UV-EW6JQxp8kpYr-22">
          <mxGeometry width="100" relative="1" as="geometry">
            <mxPoint x="81.44248210023866" y="208.85383806519454" as="sourcePoint" />
            <mxPoint x="95.11312649164678" y="208.85383806519454" as="targetPoint" />
            <Array as="points" />
          </mxGeometry>
        </mxCell>
        <mxCell id="yCSQ9UV-EW6JQxp8kpYr-28" value="" style="edgeStyle=none;orthogonalLoop=1;jettySize=auto;html=1;rounded=0;labelBackgroundColor=default;strokeColor=#000000;strokeWidth=1;fontFamily=Helvetica;fontSize=11;fontColor=default;endArrow=none;shape=connector;exitX=0.5;exitY=1;exitDx=0;exitDy=0;" edge="1" parent="1" source="yCSQ9UV-EW6JQxp8kpYr-21" target="yCSQ9UV-EW6JQxp8kpYr-26">
          <mxGeometry width="100" relative="1" as="geometry">
            <mxPoint x="95.11312649164678" y="211.58780231335436" as="sourcePoint" />
            <mxPoint x="108.7837708830549" y="211.58780231335436" as="targetPoint" />
            <Array as="points" />
          </mxGeometry>
        </mxCell>
        <mxCell id="yCSQ9UV-EW6JQxp8kpYr-29" value="" style="ellipse;whiteSpace=wrap;html=1;fillColor=#f8cecc;strokeColor=#000000;" vertex="1" parent="1">
          <mxGeometry x="66.40477326968974" y="241.66140904311254" width="6.835322195704057" height="6.971608832807571" as="geometry" />
        </mxCell>
        <mxCell id="yCSQ9UV-EW6JQxp8kpYr-30" value="" style="ellipse;whiteSpace=wrap;html=1;fillColor=#FFB570;strokeColor=#000000;" vertex="1" parent="1">
          <mxGeometry x="99.21431980906921" y="241.66140904311254" width="6.835322195704057" height="6.971608832807571" as="geometry" />
        </mxCell>
        <mxCell id="yCSQ9UV-EW6JQxp8kpYr-31" value="" style="edgeStyle=none;orthogonalLoop=1;jettySize=auto;html=1;rounded=0;labelBackgroundColor=default;strokeColor=#000000;strokeWidth=1;fontFamily=Helvetica;fontSize=11;fontColor=default;endArrow=none;shape=connector;exitX=0.5;exitY=0;exitDx=0;exitDy=0;entryX=0.5;entryY=1;entryDx=0;entryDy=0;" edge="1" parent="1" source="yCSQ9UV-EW6JQxp8kpYr-29" target="yCSQ9UV-EW6JQxp8kpYr-25">
          <mxGeometry width="100" relative="1" as="geometry">
            <mxPoint x="74.6071599045346" y="247.1293375394322" as="sourcePoint" />
            <mxPoint x="88.27780429594272" y="247.1293375394322" as="targetPoint" />
            <Array as="points" />
          </mxGeometry>
        </mxCell>
        <mxCell id="yCSQ9UV-EW6JQxp8kpYr-32" value="" style="edgeStyle=none;orthogonalLoop=1;jettySize=auto;html=1;rounded=0;labelBackgroundColor=default;strokeColor=#000000;strokeWidth=1;fontFamily=Helvetica;fontSize=11;fontColor=default;endArrow=none;shape=connector;exitX=0.5;exitY=0;exitDx=0;exitDy=0;entryX=0.5;entryY=1;entryDx=0;entryDy=0;" edge="1" parent="1" source="yCSQ9UV-EW6JQxp8kpYr-30" target="yCSQ9UV-EW6JQxp8kpYr-26">
          <mxGeometry width="100" relative="1" as="geometry">
            <mxPoint x="93.74606205250596" y="245.7623554153523" as="sourcePoint" />
            <mxPoint x="107.41670644391408" y="245.7623554153523" as="targetPoint" />
            <Array as="points" />
          </mxGeometry>
        </mxCell>
        <mxCell id="yCSQ9UV-EW6JQxp8kpYr-33" value="" style="ellipse;whiteSpace=wrap;html=1;fillColor=#0059B3;strokeColor=#000000;" vertex="1" parent="1">
          <mxGeometry x="56.83532219570406" y="243.02839116719244" width="6.835322195704057" height="6.971608832807571" as="geometry" />
        </mxCell>
        <mxCell id="yCSQ9UV-EW6JQxp8kpYr-34" value="" style="ellipse;whiteSpace=wrap;html=1;fillColor=#FFB570;strokeColor=#000000;" vertex="1" parent="1">
          <mxGeometry x="88.27486873508353" y="243.02839116719244" width="6.835322195704057" height="6.971608832807571" as="geometry" />
        </mxCell>
        <mxCell id="yCSQ9UV-EW6JQxp8kpYr-35" value="" style="edgeStyle=none;orthogonalLoop=1;jettySize=auto;html=1;rounded=0;labelBackgroundColor=default;strokeColor=#000000;strokeWidth=1;fontFamily=Helvetica;fontSize=11;fontColor=default;endArrow=none;shape=connector;exitX=1;exitY=0.5;exitDx=0;exitDy=0;entryX=0.033;entryY=0.647;entryDx=0;entryDy=0;entryPerimeter=0;" edge="1" parent="1" source="yCSQ9UV-EW6JQxp8kpYr-33" target="yCSQ9UV-EW6JQxp8kpYr-29">
          <mxGeometry width="100" relative="1" as="geometry">
            <mxPoint x="62.3035799522673" y="264.9001051524711" as="sourcePoint" />
            <mxPoint x="75.97422434367542" y="264.9001051524711" as="targetPoint" />
            <Array as="points" />
          </mxGeometry>
        </mxCell>
        <mxCell id="yCSQ9UV-EW6JQxp8kpYr-36" value="" style="edgeStyle=none;orthogonalLoop=1;jettySize=auto;html=1;rounded=0;labelBackgroundColor=default;strokeColor=#000000;strokeWidth=1;fontFamily=Helvetica;fontSize=11;fontColor=default;endArrow=none;shape=connector;exitX=1;exitY=0.5;exitDx=0;exitDy=0;entryX=0;entryY=0.5;entryDx=0;entryDy=0;" edge="1" parent="1" source="yCSQ9UV-EW6JQxp8kpYr-34" target="yCSQ9UV-EW6JQxp8kpYr-30">
          <mxGeometry width="100" relative="1" as="geometry">
            <mxPoint x="86.91073985680191" y="267.63406940063095" as="sourcePoint" />
            <mxPoint x="100.58138424821003" y="267.63406940063095" as="targetPoint" />
            <Array as="points" />
          </mxGeometry>
        </mxCell>
        <mxCell id="yCSQ9UV-EW6JQxp8kpYr-44" value="" style="group" vertex="1" connectable="0" parent="1">
          <mxGeometry x="149.99801909307877" y="88.41473186119873" width="39.646849642004774" height="31.581430073606725" as="geometry" />
        </mxCell>
        <mxCell id="yCSQ9UV-EW6JQxp8kpYr-39" value="" style="ellipse;whiteSpace=wrap;html=1;fillColor=#f8cecc;strokeColor=#b85450;" vertex="1" parent="yCSQ9UV-EW6JQxp8kpYr-44">
          <mxGeometry x="32.81152744630072" width="6.835322195704057" height="6.971608832807571" as="geometry" />
        </mxCell>
        <mxCell id="yCSQ9UV-EW6JQxp8kpYr-40" value="" style="ellipse;whiteSpace=wrap;html=1;fillColor=#FF6666;strokeColor=#000000;" vertex="1" parent="yCSQ9UV-EW6JQxp8kpYr-44">
          <mxGeometry x="13.672625298329358" y="2.7339642481598503" width="6.835322195704057" height="6.971608832807571" as="geometry" />
        </mxCell>
        <mxCell id="yCSQ9UV-EW6JQxp8kpYr-41" value="" style="edgeStyle=none;orthogonalLoop=1;jettySize=auto;html=1;rounded=0;labelBackgroundColor=default;strokeColor=default;strokeWidth=1;fontFamily=Helvetica;fontSize=11;fontColor=default;endArrow=none;shape=connector;exitX=1;exitY=0.5;exitDx=0;exitDy=0;entryX=0;entryY=0.5;entryDx=0;entryDy=0;" edge="1" parent="yCSQ9UV-EW6JQxp8kpYr-44" source="yCSQ9UV-EW6JQxp8kpYr-40" target="yCSQ9UV-EW6JQxp8kpYr-39">
          <mxGeometry width="100" relative="1" as="geometry">
            <mxPoint x="23.242076372315033" y="7.529337539432191" as="sourcePoint" />
            <mxPoint x="33.768472553699276" y="5.87802313354365" as="targetPoint" />
            <Array as="points" />
          </mxGeometry>
        </mxCell>
        <mxCell id="yCSQ9UV-EW6JQxp8kpYr-42" value="" style="ellipse;whiteSpace=wrap;html=1;fillColor=#FF6666;strokeColor=#000000;" vertex="1" parent="yCSQ9UV-EW6JQxp8kpYr-44">
          <mxGeometry y="24.609821240799164" width="6.835322195704057" height="6.971608832807571" as="geometry" />
        </mxCell>
        <mxCell id="yCSQ9UV-EW6JQxp8kpYr-43" value="" style="edgeStyle=none;orthogonalLoop=1;jettySize=auto;html=1;rounded=0;labelBackgroundColor=default;strokeColor=default;strokeWidth=1;fontFamily=Helvetica;fontSize=11;fontColor=default;endArrow=none;shape=connector;exitX=0.677;exitY=0.061;exitDx=0;exitDy=0;exitPerimeter=0;" edge="1" parent="yCSQ9UV-EW6JQxp8kpYr-44" source="yCSQ9UV-EW6JQxp8kpYr-42">
          <mxGeometry width="100" relative="1" as="geometry">
            <mxPoint x="15.039689737470162" y="13.669821240799166" as="sourcePoint" />
            <mxPoint x="14.629570405727925" y="8.748685594111492" as="targetPoint" />
            <Array as="points" />
          </mxGeometry>
        </mxCell>
        <mxCell id="yCSQ9UV-EW6JQxp8kpYr-45" value="" style="ellipse;whiteSpace=wrap;html=1;fillColor=#f8cecc;strokeColor=#000000;" vertex="1" parent="1">
          <mxGeometry x="68.59207637231503" y="181.51419558359623" width="6.835322195704057" height="6.971608832807571" as="geometry" />
        </mxCell>
        <mxCell id="yCSQ9UV-EW6JQxp8kpYr-46" value="" style="ellipse;whiteSpace=wrap;html=1;fillColor=#f8cecc;strokeColor=#000000;" vertex="1" parent="1">
          <mxGeometry x="66.40477326968974" y="218.42271293375396" width="6.835322195704057" height="6.971608832807571" as="geometry" />
        </mxCell>
        <mxCell id="yCSQ9UV-EW6JQxp8kpYr-47" value="" style="ellipse;whiteSpace=wrap;html=1;fillColor=#0059B3;strokeColor=#000000;" vertex="1" parent="1">
          <mxGeometry x="68.59207637231503" y="181.51419558359623" width="6.835322195704057" height="6.971608832807571" as="geometry" />
        </mxCell>
        <mxCell id="yCSQ9UV-EW6JQxp8kpYr-48" value="" style="ellipse;whiteSpace=wrap;html=1;fillColor=#0059B3;strokeColor=#000000;" vertex="1" parent="1">
          <mxGeometry x="66.40477326968974" y="218.42271293375396" width="6.835322195704057" height="6.971608832807571" as="geometry" />
        </mxCell>
        <mxCell id="yCSQ9UV-EW6JQxp8kpYr-49" value="" style="ellipse;whiteSpace=wrap;html=1;fillColor=#0059B3;strokeColor=#000000;" vertex="1" parent="1">
          <mxGeometry x="66.40477326968974" y="241.66140904311254" width="6.835322195704057" height="6.971608832807571" as="geometry" />
        </mxCell>
        <mxCell id="yCSQ9UV-EW6JQxp8kpYr-50" value="" style="ellipse;whiteSpace=wrap;html=1;fillColor=#f8cecc;strokeColor=#000000;" vertex="1" parent="1">
          <mxGeometry x="82.80954653937948" y="140.50473186119874" width="6.835322195704057" height="6.971608832807571" as="geometry" />
        </mxCell>
        <mxCell id="yCSQ9UV-EW6JQxp8kpYr-51" value="" style="edgeStyle=none;orthogonalLoop=1;jettySize=auto;html=1;rounded=0;labelBackgroundColor=default;strokeColor=#000000;strokeWidth=1;fontFamily=Helvetica;fontSize=11;fontColor=default;endArrow=none;shape=connector;exitX=1;exitY=0.5;exitDx=0;exitDy=0;entryX=0.02;entryY=0.386;entryDx=0;entryDy=0;entryPerimeter=0;" edge="1" source="yCSQ9UV-EW6JQxp8kpYr-50" target="yCSQ9UV-EW6JQxp8kpYr-52" parent="1">
          <mxGeometry width="100" relative="1" as="geometry">
            <mxPoint x="93.74606205250596" y="161.00946372239747" as="sourcePoint" />
            <mxPoint x="107.41670644391408" y="161.00946372239747" as="targetPoint" />
            <Array as="points" />
          </mxGeometry>
        </mxCell>
        <mxCell id="yCSQ9UV-EW6JQxp8kpYr-52" value="" style="ellipse;whiteSpace=wrap;html=1;fillColor=#3333FF;strokeColor=#000000;" vertex="1" parent="1">
          <mxGeometry x="100.44467780429594" y="143.23869610935859" width="6.835322195704057" height="6.971608832807571" as="geometry" />
        </mxCell>
        <mxCell id="yCSQ9UV-EW6JQxp8kpYr-53" value="" style="ellipse;whiteSpace=wrap;html=1;fillColor=#f8cecc;strokeColor=#000000;" vertex="1" parent="1">
          <mxGeometry x="82.80954653937948" y="140.50473186119874" width="6.835322195704057" height="6.971608832807571" as="geometry" />
        </mxCell>
        <mxCell id="yCSQ9UV-EW6JQxp8kpYr-54" value="" style="edgeStyle=none;orthogonalLoop=1;jettySize=auto;html=1;rounded=0;labelBackgroundColor=default;strokeColor=#000000;strokeWidth=1;fontFamily=Helvetica;fontSize=11;fontColor=default;endArrow=none;shape=connector;exitX=1;exitY=0.5;exitDx=0;exitDy=0;entryX=0.02;entryY=0.386;entryDx=0;entryDy=0;entryPerimeter=0;" edge="1" source="yCSQ9UV-EW6JQxp8kpYr-53" target="yCSQ9UV-EW6JQxp8kpYr-55" parent="1">
          <mxGeometry width="100" relative="1" as="geometry">
            <mxPoint x="93.74606205250596" y="161.00946372239747" as="sourcePoint" />
            <mxPoint x="107.41670644391408" y="161.00946372239747" as="targetPoint" />
            <Array as="points" />
          </mxGeometry>
        </mxCell>
        <mxCell id="yCSQ9UV-EW6JQxp8kpYr-55" value="" style="ellipse;whiteSpace=wrap;html=1;fillColor=#3333FF;strokeColor=#000000;" vertex="1" parent="1">
          <mxGeometry x="100.44467780429594" y="143.23869610935859" width="6.835322195704057" height="6.971608832807571" as="geometry" />
        </mxCell>
        <mxCell id="yCSQ9UV-EW6JQxp8kpYr-56" value="" style="edgeStyle=none;orthogonalLoop=1;jettySize=auto;html=1;rounded=0;labelBackgroundColor=default;strokeColor=#000000;strokeWidth=1;fontFamily=Helvetica;fontSize=11;fontColor=default;endArrow=none;shape=connector;exitX=1;exitY=1;exitDx=0;exitDy=0;" edge="1" target="yCSQ9UV-EW6JQxp8kpYr-57" parent="1">
          <mxGeometry width="100" relative="1" as="geometry">
            <mxPoint x="106.30272584329703" y="149.1648874669115" as="sourcePoint" />
            <mxPoint x="132.02386634844868" y="165.11041009463722" as="targetPoint" />
            <Array as="points" />
          </mxGeometry>
        </mxCell>
        <mxCell id="yCSQ9UV-EW6JQxp8kpYr-57" value="" style="ellipse;whiteSpace=wrap;html=1;fillColor=#3333FF;strokeColor=#000000;" vertex="1" parent="1">
          <mxGeometry x="100.44467780429594" y="159.64248159831757" width="6.835322195704057" height="6.971608832807571" as="geometry" />
        </mxCell>
        <mxCell id="yCSQ9UV-EW6JQxp8kpYr-58" value="" style="edgeStyle=none;orthogonalLoop=1;jettySize=auto;html=1;rounded=0;labelBackgroundColor=default;strokeColor=#000000;strokeWidth=1;fontFamily=Helvetica;fontSize=11;fontColor=default;endArrow=none;shape=connector;exitX=1;exitY=0.5;exitDx=0;exitDy=0;" edge="1" target="yCSQ9UV-EW6JQxp8kpYr-57" parent="1">
          <mxGeometry width="100" relative="1" as="geometry">
            <mxPoint x="71.87303102625197" y="168.596214511041" as="sourcePoint" />
            <mxPoint x="129.28973747016707" y="182.88117770767616" as="targetPoint" />
            <Array as="points" />
          </mxGeometry>
        </mxCell>
        <mxCell id="yCSQ9UV-EW6JQxp8kpYr-66" value="" style="group" vertex="1" connectable="0" parent="1">
          <mxGeometry x="151.99770883054893" y="133.53473186119874" width="42.242291169451065" height="31.577287066246043" as="geometry" />
        </mxCell>
        <mxCell id="yCSQ9UV-EW6JQxp8kpYr-59" value="" style="ellipse;whiteSpace=wrap;html=1;fillColor=#3333FF;strokeColor=#000000;" vertex="1" parent="yCSQ9UV-EW6JQxp8kpYr-66">
          <mxGeometry y="24.605678233438482" width="6.835322195704057" height="6.971608832807571" as="geometry" />
        </mxCell>
        <mxCell id="yCSQ9UV-EW6JQxp8kpYr-60" value="" style="ellipse;whiteSpace=wrap;html=1;fillColor=#f8cecc;strokeColor=#000000;" vertex="1" parent="yCSQ9UV-EW6JQxp8kpYr-66">
          <mxGeometry x="17.77183770883056" width="6.835322195704057" height="6.971608832807571" as="geometry" />
        </mxCell>
        <mxCell id="yCSQ9UV-EW6JQxp8kpYr-61" value="" style="edgeStyle=none;orthogonalLoop=1;jettySize=auto;html=1;rounded=0;labelBackgroundColor=default;strokeColor=#000000;strokeWidth=1;fontFamily=Helvetica;fontSize=11;fontColor=default;endArrow=none;shape=connector;exitX=1;exitY=0.5;exitDx=0;exitDy=0;entryX=0.02;entryY=0.386;entryDx=0;entryDy=0;entryPerimeter=0;" edge="1" parent="yCSQ9UV-EW6JQxp8kpYr-66" source="yCSQ9UV-EW6JQxp8kpYr-60" target="yCSQ9UV-EW6JQxp8kpYr-62">
          <mxGeometry width="100" relative="1" as="geometry">
            <mxPoint x="28.70835322195704" y="20.504731861198735" as="sourcePoint" />
            <mxPoint x="42.37899761336516" y="20.504731861198735" as="targetPoint" />
            <Array as="points" />
          </mxGeometry>
        </mxCell>
        <mxCell id="yCSQ9UV-EW6JQxp8kpYr-62" value="" style="ellipse;whiteSpace=wrap;html=1;fillColor=#3333FF;strokeColor=#000000;" vertex="1" parent="yCSQ9UV-EW6JQxp8kpYr-66">
          <mxGeometry x="35.40696897374701" y="2.7339642481598503" width="6.835322195704057" height="6.971608832807571" as="geometry" />
        </mxCell>
        <mxCell id="yCSQ9UV-EW6JQxp8kpYr-63" value="" style="edgeStyle=none;orthogonalLoop=1;jettySize=auto;html=1;rounded=0;labelBackgroundColor=default;strokeColor=#000000;strokeWidth=1;fontFamily=Helvetica;fontSize=11;fontColor=default;endArrow=none;shape=connector;exitX=1;exitY=1;exitDx=0;exitDy=0;" edge="1" parent="yCSQ9UV-EW6JQxp8kpYr-66" target="yCSQ9UV-EW6JQxp8kpYr-64">
          <mxGeometry width="100" relative="1" as="geometry">
            <mxPoint x="41.2650170127481" y="8.66015560571276" as="sourcePoint" />
            <mxPoint x="66.98615751789976" y="24.605678233438482" as="targetPoint" />
            <Array as="points" />
          </mxGeometry>
        </mxCell>
        <mxCell id="yCSQ9UV-EW6JQxp8kpYr-64" value="" style="ellipse;whiteSpace=wrap;html=1;fillColor=#3333FF;strokeColor=#000000;" vertex="1" parent="yCSQ9UV-EW6JQxp8kpYr-66">
          <mxGeometry x="35.40696897374701" y="19.13774973711884" width="6.835322195704057" height="6.971608832807571" as="geometry" />
        </mxCell>
        <mxCell id="yCSQ9UV-EW6JQxp8kpYr-65" value="" style="edgeStyle=none;orthogonalLoop=1;jettySize=auto;html=1;rounded=0;labelBackgroundColor=default;strokeColor=#000000;strokeWidth=1;fontFamily=Helvetica;fontSize=11;fontColor=default;endArrow=none;shape=connector;exitX=1;exitY=0.5;exitDx=0;exitDy=0;" edge="1" parent="yCSQ9UV-EW6JQxp8kpYr-66" target="yCSQ9UV-EW6JQxp8kpYr-64">
          <mxGeometry width="100" relative="1" as="geometry">
            <mxPoint x="6.835322195703043" y="28.091482649842277" as="sourcePoint" />
            <mxPoint x="64.25202863961815" y="42.376445846477424" as="targetPoint" />
            <Array as="points" />
          </mxGeometry>
        </mxCell>
        <mxCell id="yCSQ9UV-EW6JQxp8kpYr-76" value="" style="group" vertex="1" connectable="0" parent="1">
          <mxGeometry x="179.99532219570406" y="270.00419558359624" width="32.80954653937947" height="68.48580441640377" as="geometry" />
        </mxCell>
        <mxCell id="yCSQ9UV-EW6JQxp8kpYr-67" value="" style="ellipse;whiteSpace=wrap;html=1;fillColor=#f8cecc;strokeColor=#000000;" vertex="1" parent="yCSQ9UV-EW6JQxp8kpYr-76">
          <mxGeometry x="25.974224343675417" width="6.835322195704057" height="6.971608832807571" as="geometry" />
        </mxCell>
        <mxCell id="yCSQ9UV-EW6JQxp8kpYr-68" value="" style="edgeStyle=none;orthogonalLoop=1;jettySize=auto;html=1;rounded=0;labelBackgroundColor=default;strokeColor=#000000;strokeWidth=1;fontFamily=Helvetica;fontSize=11;fontColor=default;endArrow=none;shape=connector;entryX=0;entryY=0.5;entryDx=0;entryDy=0;exitX=1;exitY=0.5;exitDx=0;exitDy=0;" edge="1" parent="yCSQ9UV-EW6JQxp8kpYr-76" target="yCSQ9UV-EW6JQxp8kpYr-67">
          <mxGeometry width="100" relative="1" as="geometry">
            <mxPoint x="18.592076372314438" y="3.4858044164038233" as="sourcePoint" />
            <mxPoint x="34.17661097852027" y="3.427024185068319" as="targetPoint" />
            <Array as="points" />
          </mxGeometry>
        </mxCell>
        <mxCell id="yCSQ9UV-EW6JQxp8kpYr-69" value="" style="edgeStyle=none;orthogonalLoop=1;jettySize=auto;html=1;rounded=0;labelBackgroundColor=default;strokeColor=#000000;strokeWidth=1;fontFamily=Helvetica;fontSize=11;fontColor=default;endArrow=none;shape=connector;exitX=0.5;exitY=0;exitDx=0;exitDy=0;" edge="1" parent="yCSQ9UV-EW6JQxp8kpYr-76">
          <mxGeometry width="100" relative="1" as="geometry">
            <mxPoint x="12.987112171837708" y="36.908517350157695" as="sourcePoint" />
            <mxPoint x="14.94740600262881" y="6.9639107598635235" as="targetPoint" />
            <Array as="points" />
          </mxGeometry>
        </mxCell>
        <mxCell id="yCSQ9UV-EW6JQxp8kpYr-70" value="" style="edgeStyle=none;orthogonalLoop=1;jettySize=auto;html=1;rounded=0;labelBackgroundColor=default;strokeColor=#000000;strokeWidth=1;fontFamily=Helvetica;fontSize=11;fontColor=default;endArrow=none;shape=connector;exitX=0.5;exitY=0;exitDx=0;exitDy=0;entryX=0.5;entryY=1;entryDx=0;entryDy=0;" edge="1" parent="yCSQ9UV-EW6JQxp8kpYr-76">
          <mxGeometry width="100" relative="1" as="geometry">
            <mxPoint x="12.987112171837708" y="60.14721345951631" as="sourcePoint" />
            <mxPoint x="12.987112171837708" y="43.880126182965284" as="targetPoint" />
            <Array as="points" />
          </mxGeometry>
        </mxCell>
        <mxCell id="yCSQ9UV-EW6JQxp8kpYr-71" value="" style="ellipse;whiteSpace=wrap;html=1;fillColor=#0059B3;strokeColor=#000000;" vertex="1" parent="yCSQ9UV-EW6JQxp8kpYr-76">
          <mxGeometry y="61.514195583596205" width="6.835322195704057" height="6.971608832807571" as="geometry" />
        </mxCell>
        <mxCell id="yCSQ9UV-EW6JQxp8kpYr-72" value="" style="edgeStyle=none;orthogonalLoop=1;jettySize=auto;html=1;rounded=0;labelBackgroundColor=default;strokeColor=#000000;strokeWidth=1;fontFamily=Helvetica;fontSize=11;fontColor=default;endArrow=none;shape=connector;exitX=1;exitY=0.5;exitDx=0;exitDy=0;entryX=0.033;entryY=0.647;entryDx=0;entryDy=0;entryPerimeter=0;" edge="1" parent="yCSQ9UV-EW6JQxp8kpYr-76" source="yCSQ9UV-EW6JQxp8kpYr-71">
          <mxGeometry width="100" relative="1" as="geometry">
            <mxPoint x="5.468257756563233" y="83.38590956887487" as="sourcePoint" />
            <mxPoint x="9.795016706443931" y="64.6578443743428" as="targetPoint" />
            <Array as="points" />
          </mxGeometry>
        </mxCell>
        <mxCell id="yCSQ9UV-EW6JQxp8kpYr-73" value="" style="ellipse;whiteSpace=wrap;html=1;fillColor=#0059B3;strokeColor=#000000;" vertex="1" parent="yCSQ9UV-EW6JQxp8kpYr-76">
          <mxGeometry x="11.756754176610968" width="6.835322195704057" height="6.971608832807571" as="geometry" />
        </mxCell>
        <mxCell id="yCSQ9UV-EW6JQxp8kpYr-74" value="" style="ellipse;whiteSpace=wrap;html=1;fillColor=#0059B3;strokeColor=#000000;" vertex="1" parent="yCSQ9UV-EW6JQxp8kpYr-76">
          <mxGeometry x="9.569451073985675" y="36.90851735015772" width="6.835322195704057" height="6.971608832807571" as="geometry" />
        </mxCell>
        <mxCell id="yCSQ9UV-EW6JQxp8kpYr-75" value="" style="ellipse;whiteSpace=wrap;html=1;fillColor=#0059B3;strokeColor=#000000;" vertex="1" parent="yCSQ9UV-EW6JQxp8kpYr-76">
          <mxGeometry x="9.569451073985675" y="60.14721345951631" width="6.835322195704057" height="6.971608832807571" as="geometry" />
        </mxCell>
        <mxCell id="yCSQ9UV-EW6JQxp8kpYr-88" value="" style="group" vertex="1" connectable="0" parent="1">
          <mxGeometry x="139.99954653937948" y="270.00419558359624" width="23.24009546539378" height="68.48580441640377" as="geometry" />
        </mxCell>
        <mxCell id="yCSQ9UV-EW6JQxp8kpYr-79" value="" style="ellipse;whiteSpace=wrap;html=1;fillColor=#f8cecc;strokeColor=#000000;" vertex="1" parent="yCSQ9UV-EW6JQxp8kpYr-88">
          <mxGeometry width="6.835322195704057" height="6.971608832807571" as="geometry" />
        </mxCell>
        <mxCell id="yCSQ9UV-EW6JQxp8kpYr-80" value="" style="ellipse;whiteSpace=wrap;html=1;fillColor=#FFB570;strokeColor=#000000;" vertex="1" parent="yCSQ9UV-EW6JQxp8kpYr-88">
          <mxGeometry x="14.217470167064448" width="6.835322195704057" height="6.971608832807571" as="geometry" />
        </mxCell>
        <mxCell id="yCSQ9UV-EW6JQxp8kpYr-81" value="" style="edgeStyle=none;orthogonalLoop=1;jettySize=auto;html=1;rounded=0;labelBackgroundColor=default;strokeColor=#000000;strokeWidth=1;fontFamily=Helvetica;fontSize=11;fontColor=default;endArrow=none;shape=connector;exitX=1;exitY=0.5;exitDx=0;exitDy=0;entryX=0;entryY=0.5;entryDx=0;entryDy=0;" edge="1" parent="yCSQ9UV-EW6JQxp8kpYr-88" source="yCSQ9UV-EW6JQxp8kpYr-79" target="yCSQ9UV-EW6JQxp8kpYr-80">
          <mxGeometry width="100" relative="1" as="geometry">
            <mxPoint x="1.3670644391408189" y="21.87171398527863" as="sourcePoint" />
            <mxPoint x="15.037708830548922" y="21.87171398527863" as="targetPoint" />
            <Array as="points" />
          </mxGeometry>
        </mxCell>
        <mxCell id="yCSQ9UV-EW6JQxp8kpYr-82" value="" style="ellipse;whiteSpace=wrap;html=1;fillColor=#FFB570;strokeColor=#000000;" vertex="1" parent="yCSQ9UV-EW6JQxp8kpYr-88">
          <mxGeometry x="16.404773269689727" y="36.90851735015772" width="6.835322195704057" height="6.971608832807571" as="geometry" />
        </mxCell>
        <mxCell id="yCSQ9UV-EW6JQxp8kpYr-83" value="" style="edgeStyle=none;orthogonalLoop=1;jettySize=auto;html=1;rounded=0;labelBackgroundColor=default;strokeColor=#000000;strokeWidth=1;fontFamily=Helvetica;fontSize=11;fontColor=default;endArrow=none;shape=connector;exitX=0.5;exitY=1;exitDx=0;exitDy=0;" edge="1" parent="yCSQ9UV-EW6JQxp8kpYr-88" source="yCSQ9UV-EW6JQxp8kpYr-80" target="yCSQ9UV-EW6JQxp8kpYr-82">
          <mxGeometry width="100" relative="1" as="geometry">
            <mxPoint x="12.303579952267299" y="30.073606729758126" as="sourcePoint" />
            <mxPoint x="25.974224343675417" y="30.073606729758126" as="targetPoint" />
            <Array as="points" />
          </mxGeometry>
        </mxCell>
        <mxCell id="yCSQ9UV-EW6JQxp8kpYr-84" value="" style="ellipse;whiteSpace=wrap;html=1;fillColor=#FFB570;strokeColor=#000000;" vertex="1" parent="yCSQ9UV-EW6JQxp8kpYr-88">
          <mxGeometry x="16.404773269689727" y="60.14721345951631" width="6.835322195704057" height="6.971608832807571" as="geometry" />
        </mxCell>
        <mxCell id="yCSQ9UV-EW6JQxp8kpYr-85" value="" style="edgeStyle=none;orthogonalLoop=1;jettySize=auto;html=1;rounded=0;labelBackgroundColor=default;strokeColor=#000000;strokeWidth=1;fontFamily=Helvetica;fontSize=11;fontColor=default;endArrow=none;shape=connector;exitX=0.5;exitY=0;exitDx=0;exitDy=0;entryX=0.5;entryY=1;entryDx=0;entryDy=0;" edge="1" parent="yCSQ9UV-EW6JQxp8kpYr-88" source="yCSQ9UV-EW6JQxp8kpYr-84" target="yCSQ9UV-EW6JQxp8kpYr-82">
          <mxGeometry width="100" relative="1" as="geometry">
            <mxPoint x="10.93651551312648" y="64.24815983175606" as="sourcePoint" />
            <mxPoint x="24.607159904534598" y="64.24815983175606" as="targetPoint" />
            <Array as="points" />
          </mxGeometry>
        </mxCell>
        <mxCell id="yCSQ9UV-EW6JQxp8kpYr-86" value="" style="ellipse;whiteSpace=wrap;html=1;fillColor=#FFB570;strokeColor=#000000;" vertex="1" parent="yCSQ9UV-EW6JQxp8kpYr-88">
          <mxGeometry x="5.465322195704047" y="61.514195583596205" width="6.835322195704057" height="6.971608832807571" as="geometry" />
        </mxCell>
        <mxCell id="yCSQ9UV-EW6JQxp8kpYr-87" value="" style="edgeStyle=none;orthogonalLoop=1;jettySize=auto;html=1;rounded=0;labelBackgroundColor=default;strokeColor=#000000;strokeWidth=1;fontFamily=Helvetica;fontSize=11;fontColor=default;endArrow=none;shape=connector;exitX=1;exitY=0.5;exitDx=0;exitDy=0;entryX=0;entryY=0.5;entryDx=0;entryDy=0;" edge="1" parent="yCSQ9UV-EW6JQxp8kpYr-88" source="yCSQ9UV-EW6JQxp8kpYr-86" target="yCSQ9UV-EW6JQxp8kpYr-84">
          <mxGeometry width="100" relative="1" as="geometry">
            <mxPoint x="4.101193317422428" y="86.11987381703472" as="sourcePoint" />
            <mxPoint x="17.771837708830546" y="86.11987381703472" as="targetPoint" />
            <Array as="points" />
          </mxGeometry>
        </mxCell>
        <mxCell id="yCSQ9UV-EW6JQxp8kpYr-89" value="" style="ellipse;whiteSpace=wrap;html=1;fillColor=#00CC00;strokeColor=#000000;" vertex="1" parent="1">
          <mxGeometry x="74.6071599045346" y="120" width="6.835322195704057" height="6.83491062039958" as="geometry" />
        </mxCell>
        <mxCell id="yCSQ9UV-EW6JQxp8kpYr-90" value="" style="endArrow=none;html=1;rounded=0;exitX=0.3;exitY=0.059;exitDx=0;exitDy=0;entryX=1;entryY=1;entryDx=0;entryDy=0;exitPerimeter=0;strokeWidth=1;strokeColor=#000000;" edge="1" source="yCSQ9UV-EW6JQxp8kpYr-91" target="yCSQ9UV-EW6JQxp8kpYr-89" parent="1">
          <mxGeometry width="50" height="50" relative="1" as="geometry">
            <mxPoint x="100.58138424821003" y="154.1745531019979" as="sourcePoint" />
            <mxPoint x="107.41670644391408" y="147.33964248159833" as="targetPoint" />
          </mxGeometry>
        </mxCell>
        <mxCell id="yCSQ9UV-EW6JQxp8kpYr-91" value="" style="ellipse;whiteSpace=wrap;html=1;fillColor=#00CC00;strokeColor=#000000;" vertex="1" parent="1">
          <mxGeometry x="81.44248210023866" y="130.93585699263932" width="6.835322195704057" height="6.971608832807571" as="geometry" />
        </mxCell>
        <mxCell id="yCSQ9UV-EW6JQxp8kpYr-92" value="" style="endArrow=none;html=1;rounded=0;entryX=0.7;entryY=0.974;entryDx=0;entryDy=0;strokeWidth=1;entryPerimeter=0;exitX=0.5;exitY=0;exitDx=0;exitDy=0;strokeColor=#000000;" edge="1" target="yCSQ9UV-EW6JQxp8kpYr-91" parent="1">
          <mxGeometry width="50" height="50" relative="1" as="geometry">
            <mxPoint x="86.22720763723149" y="140.50473186119874" as="sourcePoint" />
            <mxPoint x="97.84693677961607" y="126.83459204927053" as="targetPoint" />
          </mxGeometry>
        </mxCell>
        <mxCell id="yCSQ9UV-EW6JQxp8kpYr-98" value="" style="group" vertex="1" connectable="0" parent="1">
          <mxGeometry x="166.2871599045346" y="40" width="15.037708830548937" height="27.476340694006296" as="geometry" />
        </mxCell>
        <mxCell id="yCSQ9UV-EW6JQxp8kpYr-93" value="" style="ellipse;whiteSpace=wrap;html=1;fillColor=#f8cecc;strokeColor=#000000;" vertex="1" parent="yCSQ9UV-EW6JQxp8kpYr-98">
          <mxGeometry x="8.202386634844885" y="20.504731861198735" width="6.835322195704057" height="6.971608832807571" as="geometry" />
        </mxCell>
        <mxCell id="yCSQ9UV-EW6JQxp8kpYr-94" value="" style="ellipse;whiteSpace=wrap;html=1;fillColor=#00CC00;strokeColor=#000000;" vertex="1" parent="yCSQ9UV-EW6JQxp8kpYr-98">
          <mxGeometry width="6.835322195704057" height="6.83491062039958" as="geometry" />
        </mxCell>
        <mxCell id="yCSQ9UV-EW6JQxp8kpYr-95" value="" style="endArrow=none;html=1;rounded=0;exitX=0.3;exitY=0.059;exitDx=0;exitDy=0;entryX=1;entryY=1;entryDx=0;entryDy=0;exitPerimeter=0;strokeWidth=1;strokeColor=#000000;" edge="1" parent="yCSQ9UV-EW6JQxp8kpYr-98" source="yCSQ9UV-EW6JQxp8kpYr-96" target="yCSQ9UV-EW6JQxp8kpYr-94">
          <mxGeometry width="50" height="50" relative="1" as="geometry">
            <mxPoint x="25.97422434367543" y="34.1745531019979" as="sourcePoint" />
            <mxPoint x="32.80954653937948" y="27.339642481598332" as="targetPoint" />
          </mxGeometry>
        </mxCell>
        <mxCell id="yCSQ9UV-EW6JQxp8kpYr-96" value="" style="ellipse;whiteSpace=wrap;html=1;fillColor=#00CC00;strokeColor=#000000;" vertex="1" parent="yCSQ9UV-EW6JQxp8kpYr-98">
          <mxGeometry x="6.835322195704066" y="10.935856992639316" width="6.835322195704057" height="6.971608832807571" as="geometry" />
        </mxCell>
        <mxCell id="yCSQ9UV-EW6JQxp8kpYr-97" value="" style="endArrow=none;html=1;rounded=0;entryX=0.7;entryY=0.974;entryDx=0;entryDy=0;strokeWidth=1;entryPerimeter=0;exitX=0.5;exitY=0;exitDx=0;exitDy=0;strokeColor=#000000;" edge="1" parent="yCSQ9UV-EW6JQxp8kpYr-98" target="yCSQ9UV-EW6JQxp8kpYr-96">
          <mxGeometry width="50" height="50" relative="1" as="geometry">
            <mxPoint x="11.62004773269689" y="20.504731861198735" as="sourcePoint" />
            <mxPoint x="23.239776875081475" y="6.834592049270526" as="targetPoint" />
          </mxGeometry>
        </mxCell>
        <mxCell id="yCSQ9UV-EW6JQxp8kpYr-99" value="" style="ellipse;whiteSpace=wrap;html=1;fillColor=#FF6666;strokeColor=#000000;" vertex="1" parent="1">
          <mxGeometry x="63.67064439140812" y="143.23869610935859" width="6.835322195704057" height="6.971608832807571" as="geometry" />
        </mxCell>
        <mxCell id="yCSQ9UV-EW6JQxp8kpYr-100" value="" style="edgeStyle=none;orthogonalLoop=1;jettySize=auto;html=1;rounded=0;labelBackgroundColor=default;strokeColor=#000000;strokeWidth=1;fontFamily=Helvetica;fontSize=11;fontColor=default;endArrow=none;shape=connector;exitX=1;exitY=0.5;exitDx=0;exitDy=0;entryX=0;entryY=0.5;entryDx=0;entryDy=0;" edge="1" source="yCSQ9UV-EW6JQxp8kpYr-99" parent="1">
          <mxGeometry width="100" relative="1" as="geometry">
            <mxPoint x="73.2400954653938" y="148.03406940063093" as="sourcePoint" />
            <mxPoint x="82.80954653937829" y="143.99053627760253" as="targetPoint" />
            <Array as="points" />
          </mxGeometry>
        </mxCell>
        <mxCell id="yCSQ9UV-EW6JQxp8kpYr-101" value="" style="ellipse;whiteSpace=wrap;html=1;fillColor=#f8cecc;strokeColor=#000000;" vertex="1" parent="1">
          <mxGeometry x="82.80954653937948" y="140.50473186119874" width="6.835322195704057" height="6.971608832807571" as="geometry" />
        </mxCell>
        <mxCell id="yCSQ9UV-EW6JQxp8kpYr-102" value="" style="edgeStyle=none;orthogonalLoop=1;jettySize=auto;html=1;rounded=0;labelBackgroundColor=default;strokeColor=#000000;strokeWidth=1;fontFamily=Helvetica;fontSize=11;fontColor=default;endArrow=none;shape=connector;exitX=1;exitY=0.5;exitDx=0;exitDy=0;entryX=0.02;entryY=0.386;entryDx=0;entryDy=0;entryPerimeter=0;" edge="1" source="yCSQ9UV-EW6JQxp8kpYr-101" target="yCSQ9UV-EW6JQxp8kpYr-103" parent="1">
          <mxGeometry width="100" relative="1" as="geometry">
            <mxPoint x="93.74606205250596" y="161.00946372239747" as="sourcePoint" />
            <mxPoint x="107.41670644391408" y="161.00946372239747" as="targetPoint" />
            <Array as="points" />
          </mxGeometry>
        </mxCell>
        <mxCell id="yCSQ9UV-EW6JQxp8kpYr-103" value="" style="ellipse;whiteSpace=wrap;html=1;fillColor=#3333FF;strokeColor=#000000;" vertex="1" parent="1">
          <mxGeometry x="100.44467780429594" y="143.23869610935859" width="6.835322195704057" height="6.971608832807571" as="geometry" />
        </mxCell>
        <mxCell id="yCSQ9UV-EW6JQxp8kpYr-104" value="" style="ellipse;whiteSpace=wrap;html=1;fillColor=#f8cecc;strokeColor=#000000;" vertex="1" parent="1">
          <mxGeometry x="82.80954653937948" y="158.27549947423765" width="6.835322195704057" height="6.971608832807571" as="geometry" />
        </mxCell>
        <mxCell id="yCSQ9UV-EW6JQxp8kpYr-105" value="" style="edgeStyle=none;orthogonalLoop=1;jettySize=auto;html=1;rounded=0;labelBackgroundColor=default;strokeColor=#000000;strokeWidth=1;fontFamily=Helvetica;fontSize=11;fontColor=default;endArrow=none;shape=connector;exitX=0.5;exitY=0;exitDx=0;exitDy=0;entryX=0.5;entryY=1;entryDx=0;entryDy=0;" edge="1" source="yCSQ9UV-EW6JQxp8kpYr-104" parent="1">
          <mxGeometry width="100" relative="1" as="geometry">
            <mxPoint x="93.74606205250596" y="171.94532071503681" as="sourcePoint" />
            <mxPoint x="86.22720763723149" y="147.4763406940063" as="targetPoint" />
            <Array as="points" />
          </mxGeometry>
        </mxCell>
        <mxCell id="yCSQ9UV-EW6JQxp8kpYr-119" value="" style="group" vertex="1" connectable="0" parent="1">
          <mxGeometry x="152.00064439140812" y="188.48473186119875" width="43.60935560859187" height="47.98107255520506" as="geometry" />
        </mxCell>
        <mxCell id="yCSQ9UV-EW6JQxp8kpYr-106" value="" style="ellipse;whiteSpace=wrap;html=1;fillColor=#f8cecc;strokeColor=#000000;" vertex="1" parent="yCSQ9UV-EW6JQxp8kpYr-119">
          <mxGeometry x="19.138902147971365" y="41.0094637223975" width="6.835322195704057" height="6.971608832807571" as="geometry" />
        </mxCell>
        <mxCell id="yCSQ9UV-EW6JQxp8kpYr-107" value="" style="edgeStyle=none;orthogonalLoop=1;jettySize=auto;html=1;rounded=0;labelBackgroundColor=default;strokeColor=#000000;strokeWidth=1;fontFamily=Helvetica;fontSize=11;fontColor=default;endArrow=none;shape=connector;exitX=0.5;exitY=0;exitDx=0;exitDy=0;entryX=0.5;entryY=1;entryDx=0;entryDy=0;" edge="1" parent="yCSQ9UV-EW6JQxp8kpYr-119" source="yCSQ9UV-EW6JQxp8kpYr-106">
          <mxGeometry width="100" relative="1" as="geometry">
            <mxPoint x="34.17661097852029" y="47.84437434279707" as="sourcePoint" />
            <mxPoint x="22.55656324582337" y="24.742376445846475" as="targetPoint" />
            <Array as="points" />
          </mxGeometry>
        </mxCell>
        <mxCell id="yCSQ9UV-EW6JQxp8kpYr-108" value="" style="ellipse;whiteSpace=wrap;html=1;fillColor=#FFB570;strokeColor=#000000;" vertex="1" parent="yCSQ9UV-EW6JQxp8kpYr-119">
          <mxGeometry x="33.35637231503581" y="41.0094637223975" width="6.835322195704057" height="6.971608832807571" as="geometry" />
        </mxCell>
        <mxCell id="yCSQ9UV-EW6JQxp8kpYr-109" value="" style="edgeStyle=none;orthogonalLoop=1;jettySize=auto;html=1;rounded=0;labelBackgroundColor=default;strokeColor=#000000;strokeWidth=1;fontFamily=Helvetica;fontSize=11;fontColor=default;endArrow=none;shape=connector;entryX=0;entryY=0.5;entryDx=0;entryDy=0;exitX=1;exitY=0.5;exitDx=0;exitDy=0;" edge="1" parent="yCSQ9UV-EW6JQxp8kpYr-119" target="yCSQ9UV-EW6JQxp8kpYr-106">
          <mxGeometry width="100" relative="1" as="geometry">
            <mxPoint x="11.756754176609675" y="44.495268138801265" as="sourcePoint" />
            <mxPoint x="27.34128878281622" y="44.43648790746582" as="targetPoint" />
            <Array as="points" />
          </mxGeometry>
        </mxCell>
        <mxCell id="yCSQ9UV-EW6JQxp8kpYr-110" value="" style="edgeStyle=none;orthogonalLoop=1;jettySize=auto;html=1;rounded=0;labelBackgroundColor=default;strokeColor=#000000;strokeWidth=1;fontFamily=Helvetica;fontSize=11;fontColor=default;endArrow=none;shape=connector;exitX=1;exitY=0.5;exitDx=0;exitDy=0;entryX=0;entryY=0.5;entryDx=0;entryDy=0;" edge="1" parent="yCSQ9UV-EW6JQxp8kpYr-119" source="yCSQ9UV-EW6JQxp8kpYr-106" target="yCSQ9UV-EW6JQxp8kpYr-108">
          <mxGeometry width="100" relative="1" as="geometry">
            <mxPoint x="20.505966587112184" y="62.88117770767613" as="sourcePoint" />
            <mxPoint x="34.17661097852029" y="62.88117770767613" as="targetPoint" />
            <Array as="points" />
          </mxGeometry>
        </mxCell>
        <mxCell id="yCSQ9UV-EW6JQxp8kpYr-111" value="" style="ellipse;whiteSpace=wrap;html=1;fillColor=#0059B3;strokeColor=#000000;" vertex="1" parent="yCSQ9UV-EW6JQxp8kpYr-119">
          <mxGeometry x="4.921431980906917" y="41.0094637223975" width="6.835322195704057" height="6.971608832807571" as="geometry" />
        </mxCell>
        <mxCell id="yCSQ9UV-EW6JQxp8kpYr-112" value="" style="ellipse;whiteSpace=wrap;html=1;fillColor=#FF6666;strokeColor=#000000;" vertex="1" parent="yCSQ9UV-EW6JQxp8kpYr-119">
          <mxGeometry y="2.7339642481598503" width="6.835322195704057" height="6.971608832807571" as="geometry" />
        </mxCell>
        <mxCell id="yCSQ9UV-EW6JQxp8kpYr-113" value="" style="edgeStyle=none;orthogonalLoop=1;jettySize=auto;html=1;rounded=0;labelBackgroundColor=default;strokeColor=#000000;strokeWidth=1;fontFamily=Helvetica;fontSize=11;fontColor=default;endArrow=none;shape=connector;exitX=1;exitY=0.5;exitDx=0;exitDy=0;entryX=0;entryY=0.5;entryDx=0;entryDy=0;" edge="1" parent="yCSQ9UV-EW6JQxp8kpYr-119" source="yCSQ9UV-EW6JQxp8kpYr-112">
          <mxGeometry width="100" relative="1" as="geometry">
            <mxPoint x="9.569451073985675" y="7.529337539432191" as="sourcePoint" />
            <mxPoint x="19.13890214797017" y="3.485804416403795" as="targetPoint" />
            <Array as="points" />
          </mxGeometry>
        </mxCell>
        <mxCell id="yCSQ9UV-EW6JQxp8kpYr-114" value="" style="ellipse;whiteSpace=wrap;html=1;fillColor=#f8cecc;strokeColor=#000000;" vertex="1" parent="yCSQ9UV-EW6JQxp8kpYr-119">
          <mxGeometry x="19.138902147971365" width="6.835322195704057" height="6.971608832807571" as="geometry" />
        </mxCell>
        <mxCell id="yCSQ9UV-EW6JQxp8kpYr-115" value="" style="edgeStyle=none;orthogonalLoop=1;jettySize=auto;html=1;rounded=0;labelBackgroundColor=default;strokeColor=#000000;strokeWidth=1;fontFamily=Helvetica;fontSize=11;fontColor=default;endArrow=none;shape=connector;exitX=1;exitY=0.5;exitDx=0;exitDy=0;entryX=0.02;entryY=0.386;entryDx=0;entryDy=0;entryPerimeter=0;" edge="1" parent="yCSQ9UV-EW6JQxp8kpYr-119" source="yCSQ9UV-EW6JQxp8kpYr-114" target="yCSQ9UV-EW6JQxp8kpYr-116">
          <mxGeometry width="100" relative="1" as="geometry">
            <mxPoint x="30.075417661097845" y="20.504731861198735" as="sourcePoint" />
            <mxPoint x="43.74606205250596" y="20.504731861198735" as="targetPoint" />
            <Array as="points" />
          </mxGeometry>
        </mxCell>
        <mxCell id="yCSQ9UV-EW6JQxp8kpYr-116" value="" style="ellipse;whiteSpace=wrap;html=1;fillColor=#3333FF;strokeColor=#000000;" vertex="1" parent="yCSQ9UV-EW6JQxp8kpYr-119">
          <mxGeometry x="36.77403341288782" y="2.7339642481598503" width="6.835322195704057" height="6.971608832807571" as="geometry" />
        </mxCell>
        <mxCell id="yCSQ9UV-EW6JQxp8kpYr-117" value="" style="ellipse;whiteSpace=wrap;html=1;fillColor=#f8cecc;strokeColor=#000000;" vertex="1" parent="yCSQ9UV-EW6JQxp8kpYr-119">
          <mxGeometry x="19.138902147971365" y="17.770767613038913" width="6.835322195704057" height="6.971608832807571" as="geometry" />
        </mxCell>
        <mxCell id="yCSQ9UV-EW6JQxp8kpYr-118" value="" style="edgeStyle=none;orthogonalLoop=1;jettySize=auto;html=1;rounded=0;labelBackgroundColor=default;strokeColor=#000000;strokeWidth=1;fontFamily=Helvetica;fontSize=11;fontColor=default;endArrow=none;shape=connector;exitX=0.5;exitY=0;exitDx=0;exitDy=0;entryX=0.5;entryY=1;entryDx=0;entryDy=0;" edge="1" parent="yCSQ9UV-EW6JQxp8kpYr-119" source="yCSQ9UV-EW6JQxp8kpYr-117">
          <mxGeometry width="100" relative="1" as="geometry">
            <mxPoint x="30.075417661097845" y="31.44058885383808" as="sourcePoint" />
            <mxPoint x="22.55656324582337" y="6.971608832807561" as="targetPoint" />
            <Array as="points" />
          </mxGeometry>
        </mxCell>
      </root>
    </mxGraphModel>
  </diagram>
</mxfile>
